# Blender 3.1.0
# www.blender.org
mtllib chunk-01.mtl
o Ground.001
v -8.000000 -2.000000 2.000000
v -8.000000 0.000000 2.000000
v -8.000000 -2.000000 -2.000000
v -8.000000 0.000000 -2.000000
v 8.000000 -2.000000 2.000000
v 8.000000 0.000000 2.000000
v 8.000000 -2.000000 -2.000000
v 8.000000 0.000000 -2.000000
vn -1.0000 -0.0000 -0.0000
vn -0.0000 -0.0000 -1.0000
vn 1.0000 -0.0000 -0.0000
vn -0.0000 -0.0000 1.0000
vn -0.0000 -1.0000 -0.0000
vn -0.0000 1.0000 -0.0000
vt 0.105649 0.222764
vt 0.105649 0.222764
vt 0.105649 0.222764
vt 0.105649 0.222764
vt 0.105649 0.222764
vt 0.105649 0.222764
vt 0.105649 0.222764
vt 0.105649 0.222764
s 0
usemtl lowpoly_material
f 1/1/1 2/2/1 4/4/1 3/3/1
f 3/3/2 4/4/2 8/8/2 7/7/2
f 7/7/3 8/8/3 6/6/3 5/5/3
f 5/5/4 6/6/4 2/2/4 1/1/4
f 3/3/5 7/7/5 5/5/5 1/1/5
f 8/8/6 4/4/6 2/2/6 6/6/6
o Rails.009
v 2.950694 0.319277 2.000000
v 2.950694 0.516501 2.000000
v 2.950694 0.319277 -2.000000
v 2.950694 0.516501 -2.000000
v 3.049306 0.319277 2.000000
v 3.049306 0.516501 2.000000
v 3.049306 0.319277 -2.000000
v 3.049306 0.516501 -2.000000
v 2.950694 0.793621 2.000000
v 2.950694 0.990844 2.000000
v 2.950694 0.793621 -2.000000
v 2.950694 0.990844 -2.000000
v 3.049306 0.793621 2.000000
v 3.049306 0.990844 2.000000
v 3.049306 0.793621 -2.000000
v 3.049306 0.990844 -2.000000
v 2.922679 -0.017537 -0.154642
v 2.922679 -0.017537 0.154641
v 2.922679 1.181323 -0.154641
v 2.922679 1.181323 0.154642
v 3.077321 -0.017537 -0.154642
v 3.077321 -0.017537 0.154641
v 3.077321 1.181323 -0.154641
v 3.077321 1.181323 0.154642
v 2.922679 -0.017537 -2.154642
v 2.922679 -0.017537 -1.845359
v 2.922679 1.181323 -2.154641
v 2.922679 1.181323 -1.845358
v 3.077321 -0.017537 -2.154642
v 3.077321 -0.017537 -1.845359
v 3.077321 1.181323 -2.154641
v 3.077321 1.181323 -1.845358
vn -1.0000 -0.0000 -0.0000
vn -0.0000 -0.0000 -1.0000
vn 1.0000 -0.0000 -0.0000
vn -0.0000 -0.0000 1.0000
vn -0.0000 -1.0000 -0.0000
vn -0.0000 1.0000 -0.0000
vt 0.043323 0.152231
vt 0.043323 0.152231
vt 0.043323 0.152231
vt 0.043323 0.152231
vt 0.043323 0.152231
vt 0.043323 0.152231
vt 0.043323 0.152231
vt 0.043323 0.152231
vt 0.043323 0.152231
vt 0.043323 0.152231
vt 0.043323 0.152231
vt 0.043323 0.152231
vt 0.043323 0.152231
vt 0.043323 0.152231
vt 0.043323 0.152231
vt 0.043323 0.152231
vt 0.043323 0.152231
vt 0.043323 0.152231
vt 0.043323 0.152231
vt 0.043323 0.152231
vt 0.043323 0.152231
vt 0.043323 0.152231
vt 0.043323 0.152231
vt 0.043323 0.152231
vt 0.043323 0.152231
vt 0.043323 0.152231
vt 0.043323 0.152231
vt 0.043323 0.152231
vt 0.043323 0.152231
vt 0.043323 0.152231
vt 0.043323 0.152231
vt 0.043323 0.152231
s 0
usemtl lowpoly_material
f 9/9/7 10/10/7 12/12/7 11/11/7
f 11/11/8 12/12/8 16/16/8 15/15/8
f 15/15/9 16/16/9 14/14/9 13/13/9
f 13/13/10 14/14/10 10/10/10 9/9/10
f 11/11/11 15/15/11 13/13/11 9/9/11
f 16/16/12 12/12/12 10/10/12 14/14/12
f 17/17/7 18/18/7 20/20/7 19/19/7
f 19/19/8 20/20/8 24/24/8 23/23/8
f 23/23/9 24/24/9 22/22/9 21/21/9
f 21/21/10 22/22/10 18/18/10 17/17/10
f 19/19/11 23/23/11 21/21/11 17/17/11
f 24/24/12 20/20/12 18/18/12 22/22/12
f 25/25/7 26/26/7 28/28/7 27/27/7
f 27/27/12 28/28/12 32/32/12 31/31/12
f 31/31/9 32/32/9 30/30/9 29/29/9
f 29/29/11 30/30/11 26/26/11 25/25/11
f 27/27/8 31/31/8 29/29/8 25/25/8
f 32/32/10 28/28/10 26/26/10 30/30/10
f 33/33/7 34/34/7 36/36/7 35/35/7
f 35/35/12 36/36/12 40/40/12 39/39/12
f 39/39/9 40/40/9 38/38/9 37/37/9
f 37/37/11 38/38/11 34/34/11 33/33/11
f 35/35/8 39/39/8 37/37/8 33/33/8
f 40/40/10 36/36/10 34/34/10 38/38/10
o Rails.013
v -3.049306 0.319277 2.000000
v -3.049306 0.516501 2.000000
v -3.049306 0.319277 -2.000000
v -3.049306 0.516501 -2.000000
v -2.950694 0.319277 2.000000
v -2.950694 0.516501 2.000000
v -2.950694 0.319277 -2.000000
v -2.950694 0.516501 -2.000000
v -3.049306 0.793621 2.000000
v -3.049306 0.990844 2.000000
v -3.049306 0.793621 -2.000000
v -3.049306 0.990844 -2.000000
v -2.950694 0.793621 2.000000
v -2.950694 0.990844 2.000000
v -2.950694 0.793621 -2.000000
v -2.950694 0.990844 -2.000000
v -3.077321 -0.017537 -0.154642
v -3.077321 -0.017537 0.154641
v -3.077321 1.181323 -0.154641
v -3.077321 1.181323 0.154642
v -2.922679 -0.017537 -0.154642
v -2.922679 -0.017537 0.154641
v -2.922679 1.181323 -0.154641
v -2.922679 1.181323 0.154642
v -3.077321 -0.017537 -2.154642
v -3.077321 -0.017537 -1.845359
v -3.077321 1.181323 -2.154641
v -3.077321 1.181323 -1.845358
v -2.922679 -0.017537 -2.154642
v -2.922679 -0.017537 -1.845359
v -2.922679 1.181323 -2.154641
v -2.922679 1.181323 -1.845358
vn -1.0000 -0.0000 -0.0000
vn -0.0000 -0.0000 -1.0000
vn 1.0000 -0.0000 -0.0000
vn -0.0000 -0.0000 1.0000
vn -0.0000 -1.0000 -0.0000
vn -0.0000 1.0000 -0.0000
vt 0.043323 0.152231
vt 0.043323 0.152231
vt 0.043323 0.152231
vt 0.043323 0.152231
vt 0.043323 0.152231
vt 0.043323 0.152231
vt 0.043323 0.152231
vt 0.043323 0.152231
vt 0.043323 0.152231
vt 0.043323 0.152231
vt 0.043323 0.152231
vt 0.043323 0.152231
vt 0.043323 0.152231
vt 0.043323 0.152231
vt 0.043323 0.152231
vt 0.043323 0.152231
vt 0.043323 0.152231
vt 0.043323 0.152231
vt 0.043323 0.152231
vt 0.043323 0.152231
vt 0.043323 0.152231
vt 0.043323 0.152231
vt 0.043323 0.152231
vt 0.043323 0.152231
vt 0.043323 0.152231
vt 0.043323 0.152231
vt 0.043323 0.152231
vt 0.043323 0.152231
vt 0.043323 0.152231
vt 0.043323 0.152231
vt 0.043323 0.152231
vt 0.043323 0.152231
s 0
usemtl lowpoly_material
f 41/41/13 42/42/13 44/44/13 43/43/13
f 43/43/14 44/44/14 48/48/14 47/47/14
f 47/47/15 48/48/15 46/46/15 45/45/15
f 45/45/16 46/46/16 42/42/16 41/41/16
f 43/43/17 47/47/17 45/45/17 41/41/17
f 48/48/18 44/44/18 42/42/18 46/46/18
f 49/49/13 50/50/13 52/52/13 51/51/13
f 51/51/14 52/52/14 56/56/14 55/55/14
f 55/55/15 56/56/15 54/54/15 53/53/15
f 53/53/16 54/54/16 50/50/16 49/49/16
f 51/51/17 55/55/17 53/53/17 49/49/17
f 56/56/18 52/52/18 50/50/18 54/54/18
f 57/57/13 58/58/13 60/60/13 59/59/13
f 59/59/18 60/60/18 64/64/18 63/63/18
f 63/63/15 64/64/15 62/62/15 61/61/15
f 61/61/17 62/62/17 58/58/17 57/57/17
f 59/59/14 63/63/14 61/61/14 57/57/14
f 64/64/16 60/60/16 58/58/16 62/62/16
f 65/65/13 66/66/13 68/68/13 67/67/13
f 67/67/18 68/68/18 72/72/18 71/71/18
f 71/71/15 72/72/15 70/70/15 69/69/15
f 69/69/17 70/70/17 66/66/17 65/65/17
f 67/67/14 71/71/14 69/69/14 65/65/14
f 72/72/16 68/68/16 66/66/16 70/70/16
o road.003
v 2.617502 0.089839 2.000000
v 2.617502 0.000000 2.000000
v 2.617502 0.089839 -2.000000
v 2.617502 0.000000 -2.000000
v 8.000000 0.089839 2.000000
v 8.000000 0.000000 2.000000
v 8.000000 0.089839 -2.000000
v 8.000000 0.000000 -2.000000
v -2.617502 0.089839 2.000000
v -2.617502 0.000000 2.000000
v -2.617502 0.089839 -2.000000
v -2.617502 0.000000 -2.000000
v -8.000000 0.089839 2.000000
v -8.000000 0.000000 2.000000
v -8.000000 0.089839 -2.000000
v -8.000000 0.000000 -2.000000
vn -1.0000 -0.0000 -0.0000
vn -0.0000 -0.0000 -1.0000
vn 1.0000 -0.0000 -0.0000
vn -0.0000 -0.0000 1.0000
vn -0.0000 1.0000 -0.0000
vn -0.0000 -1.0000 -0.0000
vt 0.160645 0.199219
vt 0.160645 0.199219
vt 0.160645 0.199219
vt 0.160645 0.199219
vt 0.160645 0.199219
vt 0.160645 0.199219
vt 0.160645 0.199219
vt 0.160645 0.199219
vt 0.160645 0.199219
vt 0.160645 0.199219
vt 0.160645 0.199219
vt 0.160645 0.199219
vt 0.160645 0.199219
vt 0.160645 0.199219
vt 0.160645 0.199219
vt 0.160645 0.199219
s 0
usemtl lowpoly_material
f 73/73/19 75/75/19 76/76/19 74/74/19
f 75/75/20 79/79/20 80/80/20 76/76/20
f 79/79/21 77/77/21 78/78/21 80/80/21
f 77/77/22 73/73/22 74/74/22 78/78/22
f 75/75/23 73/73/23 77/77/23 79/79/23
f 80/80/24 78/78/24 74/74/24 76/76/24
f 81/81/21 82/82/21 84/84/21 83/83/21
f 83/83/20 84/84/20 88/88/20 87/87/20
f 87/87/19 88/88/19 86/86/19 85/85/19
f 85/85/22 86/86/22 82/82/22 81/81/22
f 83/83/23 87/87/23 85/85/23 81/81/23
f 88/88/24 84/84/24 82/82/24 86/86/24
