# Blender 3.1.0
# www.blender.org
mtllib grass.mtl
o Ground.002
v -4.000000 -2.000000 2.000000
v -4.000000 0.000000 2.000000
v -4.000000 -2.000000 -2.000000
v -4.000000 0.000000 -2.000000
v 4.000000 -2.000000 2.000000
v 4.000000 0.000000 2.000000
v 4.000000 -2.000000 -2.000000
v 4.000000 0.000000 -2.000000
vn -0.5000 -0.0000 -0.0000
vn -0.0000 -0.0000 -1.0000
vn 0.5000 -0.0000 -0.0000
vn -0.0000 -0.0000 1.0000
vn -0.0000 -1.0000 -0.0000
vn -0.0000 1.0000 -0.0000
vt 0.105649 0.222764
vt 0.105649 0.222764
vt 0.105649 0.222764
vt 0.105649 0.222764
vt 0.105649 0.222764
vt 0.105649 0.222764
vt 0.105649 0.222764
vt 0.105649 0.222764
s 0
usemtl lowpoly_material
f 1/1/1 2/2/1 4/4/1 3/3/1
f 3/3/2 4/4/2 8/8/2 7/7/2
f 7/7/3 8/8/3 6/6/3 5/5/3
f 5/5/4 6/6/4 2/2/4 1/1/4
f 3/3/5 7/7/5 5/5/5 1/1/5
f 8/8/6 4/4/6 2/2/6 6/6/6
o road.002
v -4.000000 0.089839 2.000000
v -4.000000 0.000000 2.000000
v -4.000000 0.089839 -2.000000
v -4.000000 0.000000 -2.000000
v 4.000000 0.089839 2.000000
v 4.000000 0.000000 2.000000
v 4.000000 0.089839 -2.000000
v 4.000000 0.000000 -2.000000
vn -1.4863 -0.0000 -0.0000
vn -0.0000 -0.0000 -1.0000
vn 1.4863 -0.0000 -0.0000
vn -0.0000 -0.0000 1.0000
vn -0.0000 1.0000 -0.0000
vn -0.0000 -1.0000 -0.0000
vt 0.160645 0.199219
vt 0.160645 0.199219
vt 0.160645 0.199219
vt 0.160645 0.199219
vt 0.160645 0.199219
vt 0.160645 0.199219
vt 0.160645 0.199219
vt 0.160645 0.199219
s 0
usemtl lowpoly_material
f 9/9/7 11/11/7 12/12/7 10/10/7
f 11/11/8 15/15/8 16/16/8 12/12/8
f 15/15/9 13/13/9 14/14/9 16/16/9
f 13/13/10 9/9/10 10/10/10 14/14/10
f 11/11/11 9/9/11 13/13/11 15/15/11
f 16/16/12 14/14/12 10/10/12 12/12/12
