# Blender 3.1.0
# www.blender.org
mtllib tree.mtl
o tree.obj
v 0.053868 3.528580 -0.108217
v 0.048027 3.528017 -0.117696
v -1.791854 1.182200 0.105827
v -0.860484 0.899554 1.659834
v 0.059162 3.527728 -0.117983
v -0.001985 0.969590 0.071334
v 0.065000 3.528291 -0.108510
v 0.932739 0.998301 1.445673
v 0.070300 3.527442 -0.118276
v 1.791854 0.923246 0.024539
v 0.064463 3.526879 -0.127751
v 0.855030 1.126285 -1.659834
v 0.053328 3.527169 -0.127457
v -0.940963 0.933921 -1.459113
v 0.078382 4.311518 -0.167078
v 0.070439 4.311409 -0.171094
v -1.169608 2.386316 0.751498
v 0.109246 2.371221 1.403132
v 0.077883 4.310873 -0.175944
v 0.029040 2.267468 -0.024718
v 0.085827 4.310981 -0.171928
v 1.309517 2.325094 0.617139
v 0.085332 4.310336 -0.180791
v 1.228397 2.180996 -0.805755
v 0.077384 4.310228 -0.184804
v -0.044117 2.445763 -1.461556
v 0.069941 4.310764 -0.179956
v -1.246575 2.415609 -0.683772
v 0.097108 5.016670 -0.222948
v 0.091416 5.016766 -0.223518
v -0.478058 3.589914 0.628664
v 0.443361 3.598205 0.859826
v 0.094748 5.016339 -0.228151
v 0.059023 3.521851 -0.117549
v 0.100442 5.016248 -0.227580
v 0.976206 3.506737 -0.025527
v 0.098081 5.015921 -0.232784
v 0.604936 3.658215 -0.727639
v 0.092389 5.016016 -0.233357
v -0.321078 3.468901 -0.955782
v 0.089055 5.016438 -0.228724
v -0.851118 3.670802 -0.072273
v 0.218023 1.049369 -0.203039
v 0.183410 0.697501 -0.115891
v -0.266812 0.709133 -0.104145
v -0.232198 1.061001 -0.191292
v 0.196455 -0.345642 0.351783
v 0.178910 0.016466 0.386093
v -0.271310 0.028097 0.397836
v -0.253765 -0.334009 0.363525
v -0.266332 -0.366948 -0.085616
v 0.183889 -0.378580 -0.097362
v -0.255262 0.739402 0.308582
v -0.219630 1.093940 0.257847
v 0.230589 1.082308 0.246101
v 0.166342 -0.016472 -0.063050
v 0.173827 0.337767 -0.126939
v -0.283881 -0.004844 -0.051304
v -0.276394 0.349395 -0.115195
v 0.186396 0.370706 0.322202
v 0.195976 0.730441 0.333252
v -0.264845 0.379665 0.297530
vn -0.6594 0.5640 0.4970
vn 0.0239 0.9970 -0.0738
vn 0.0240 0.9970 -0.0738
vn 0.0239 0.9970 -0.0740
vn -0.1193 -0.9870 -0.1080
vn 0.0703 0.5396 0.8390
vn 0.0238 0.9970 -0.0739
vn 0.0532 -0.9985 -0.0153
vn 0.7452 0.5156 0.4228
vn 0.0237 0.9970 -0.0738
vn -0.0248 -0.9990 0.0378
vn 0.7822 0.4969 -0.3759
vn 0.0238 0.9970 -0.0737
vn -0.0284 -0.9942 -0.1040
vn -0.1479 0.4965 -0.8553
vn 0.0240 0.9970 -0.0736
vn 0.1021 -0.9940 -0.0394
vn -0.7155 0.5162 -0.4707
vn -0.1156 -0.9888 0.0940
vn -0.3636 0.5825 0.7269
vn 0.0237 0.9970 -0.0739
vn 0.0236 0.9970 -0.0738
vn -0.0501 -0.9959 0.0752
vn 0.4688 0.5602 0.6829
vn 0.0088 -0.9974 0.0720
vn 0.8643 0.4931 -0.0991
vn -0.0059 -0.9949 0.1011
vn 0.4787 0.4743 -0.7388
vn 0.0237 0.9970 -0.0740
vn -0.1454 -0.9827 -0.1145
vn -0.4734 0.5184 -0.7122
vn 0.0236 0.9970 -0.0739
vn -0.0530 -0.9913 -0.1203
vn -0.8270 0.5595 0.0555
vn -0.1080 -0.9941 -0.0145
vn -0.2054 0.5613 0.8017
vn 0.0245 0.9969 -0.0743
vn 0.0238 0.9970 -0.0743
vn -0.0117 -0.9965 0.0825
vn 0.7643 0.4985 0.4090
vn 0.0232 0.9970 -0.0736
vn -0.0252 -0.9958 0.0877
vn 0.8309 0.4360 -0.3457
vn 0.0236 0.9971 -0.0730
vn 0.0053 -0.9769 -0.2136
vn 0.1451 0.3864 -0.9109
vn 0.0243 0.9970 -0.0729
vn 0.2079 -0.9776 -0.0325
vn -0.7211 0.4418 -0.5337
vn 0.0248 0.9970 -0.0736
vn -0.1537 -0.9793 0.1316
vn -0.7113 0.5476 0.4406
vn -0.1628 -0.9863 -0.0272
vn -0.0315 -0.2374 -0.9709
vn 0.0236 -0.0932 0.9954
vn -0.0238 -0.9970 0.0738
vn -0.9945 0.1029 0.0203
vn 0.0238 0.9970 -0.0738
vn 0.9982 0.0514 -0.0317
vn -0.0302 -0.1768 -0.9838
vn -0.0551 -0.0292 0.9981
vn -0.9993 0.0258 0.0261
vn 0.9993 -0.0258 -0.0261
vn -0.0253 0.0314 -0.9992
vn -0.0097 0.1925 0.9813
vn 0.9945 -0.1029 -0.0203
vn -0.0088 0.2267 0.9739
vn -0.0236 0.0932 -0.9954
vn -0.9982 -0.0514 0.0317
vt 0.034104 0.160951
vt 0.034104 0.160951
vt 0.034104 0.160951
vt 0.034104 0.160951
vt 0.034104 0.160951
vt 0.034104 0.160951
vt 0.034104 0.160951
vt 0.034104 0.160951
vt 0.034104 0.160951
vt 0.034104 0.160951
vt 0.034104 0.160951
vt 0.034104 0.160951
vt 0.034104 0.160951
vt 0.034104 0.160951
vt 0.034104 0.160951
vt 0.034104 0.160951
vt 0.034104 0.160951
vt 0.034104 0.160951
vt 0.034104 0.160951
vt 0.034104 0.160951
vt 0.034104 0.160951
vt 0.034104 0.160951
vt 0.034104 0.160951
vt 0.034104 0.160951
vt 0.034104 0.160951
vt 0.034104 0.160951
vt 0.034104 0.160951
vt 0.034104 0.160951
vt 0.034104 0.160951
vt 0.034104 0.160951
vt 0.034104 0.160951
vt 0.034104 0.160951
vt 0.034104 0.160951
vt 0.034104 0.160951
vt 0.034104 0.160951
vt 0.034104 0.160951
vt 0.034104 0.160951
vt 0.034104 0.160951
vt 0.034104 0.160951
vt 0.034104 0.160951
vt 0.034104 0.160951
vt 0.034104 0.160951
vt 0.246753 0.192092
vt 0.246753 0.192092
vt 0.246753 0.192092
vt 0.246753 0.192092
vt 0.246753 0.192092
vt 0.246753 0.192092
vt 0.246753 0.192092
vt 0.246753 0.192092
vt 0.246753 0.192092
vt 0.246753 0.192092
vt 0.246753 0.192092
vt 0.246753 0.192092
vt 0.246753 0.192092
vt 0.246753 0.192092
vt 0.246753 0.192092
vt 0.246753 0.192092
vt 0.246753 0.192092
vt 0.246753 0.192092
vt 0.246753 0.192092
vt 0.246753 0.192092
s 1
usemtl lowpoly_material
f 1/1/1 2/2/1 3/3/1 4/4/1
f 5/5/2 2/2/3 1/1/4
f 6/6/5 4/4/5 3/3/5
f 7/7/6 1/1/6 4/4/6 8/8/6
f 5/5/2 1/1/4 7/7/7
f 6/6/8 8/8/8 4/4/8
f 9/9/9 7/7/9 8/8/9 10/10/9
f 5/5/2 7/7/7 9/9/10
f 6/6/11 10/10/11 8/8/11
f 11/11/12 9/9/12 10/10/12 12/12/12
f 5/5/2 9/9/10 11/11/13
f 6/6/14 12/12/14 10/10/14
f 13/13/15 11/11/15 12/12/15 14/14/15
f 5/5/2 11/11/13 13/13/16
f 6/6/17 14/14/17 12/12/17
f 2/2/18 13/13/18 14/14/18 3/3/18
f 5/5/2 13/13/16 2/2/3
f 6/6/19 3/3/19 14/14/19
f 15/15/20 16/16/20 17/17/20 18/18/20
f 19/19/21 16/16/22 15/15/21
f 20/20/23 18/18/23 17/17/23
f 21/21/24 15/15/24 18/18/24 22/22/24
f 19/19/21 15/15/21 21/21/7
f 20/20/25 22/22/25 18/18/25
f 23/23/26 21/21/26 22/22/26 24/24/26
f 19/19/21 21/21/7 23/23/7
f 20/20/27 24/24/27 22/22/27
f 25/25/28 23/23/28 24/24/28 26/26/28
f 19/19/21 23/23/7 25/25/29
f 20/20/30 26/26/30 24/24/30
f 27/27/31 25/25/31 26/26/31 28/28/31
f 19/19/21 25/25/29 27/27/32
f 20/20/33 28/28/33 26/26/33
f 16/16/34 27/27/34 28/28/34 17/17/34
f 19/19/21 27/27/32 16/16/22
f 20/20/35 17/17/35 28/28/35
f 29/29/36 30/30/36 31/31/36 32/32/36
f 33/33/16 30/30/37 29/29/38
f 34/34/39 32/32/39 31/31/39
f 35/35/40 29/29/40 32/32/40 36/36/40
f 33/33/16 29/29/38 35/35/41
f 34/34/42 36/36/42 32/32/42
f 37/37/43 35/35/43 36/36/43 38/38/43
f 33/33/16 35/35/41 37/37/44
f 34/34/45 38/38/45 36/36/45
f 39/39/46 37/37/46 38/38/46 40/40/46
f 33/33/16 37/37/44 39/39/47
f 34/34/48 40/40/48 38/38/48
f 41/41/49 39/39/49 40/40/49 42/42/49
f 33/33/16 39/39/47 41/41/50
f 34/34/51 42/42/51 40/40/51
f 30/30/52 41/41/52 42/42/52 31/31/52
f 33/33/16 41/41/50 30/30/37
f 34/34/53 31/31/53 42/42/53
f 43/43/54 44/44/54 45/45/54 46/46/54
f 47/47/55 48/48/55 49/49/55 50/50/55
f 51/51/56 52/52/56 47/47/56 50/50/56
f 46/46/57 45/45/57 53/53/57 54/54/57
f 43/43/58 46/46/58 54/54/58 55/55/58
f 52/52/59 56/56/59 48/48/59 47/47/59
f 57/57/60 56/56/60 58/58/60 59/59/60
f 60/60/61 61/61/61 53/53/61 62/62/61
f 59/59/62 58/58/62 49/49/62 62/62/62
f 57/57/63 44/44/63 61/61/63 60/60/63
f 44/44/64 57/57/64 59/59/64 45/45/64
f 45/45/62 59/59/62 62/62/62 53/53/62
f 61/61/65 55/55/65 54/54/65 53/53/65
f 44/44/66 43/43/66 55/55/66 61/61/66
f 48/48/67 60/60/67 62/62/67 49/49/67
f 56/56/63 57/57/63 60/60/63 48/48/63
f 56/56/68 52/52/68 51/51/68 58/58/68
f 58/58/69 51/51/69 50/50/69 49/49/69
